<svg width="60" height="60" viewBox="0 0 60 60" fill="none" xmlns="http://www.w3.org/2000/svg">
<path d="M4.35417 44.6875C1.95833 44.6875 0 46.6458 0 49.0417C0 51.4375 1.95833 53.3958 4.35417 53.3958C6.75 53.3958 8.70833 51.4375 8.70833 49.0417C8.70833 46.6458 6.77083 44.6875 4.35417 44.6875Z" fill="white"/>
<path d="M57.9582 6.66669L30.5415 15.4167V6.77085L0.979004 16.2084V41.2709L26.479 33.125V41.7292L59.9998 31.0417L50.9165 22.1667L57.9582 6.66669ZM26.479 28.8334L5.06234 35.6667V19.1875L26.479 12.3542V28.8334ZM52.4165 29.1875L30.5415 36.1667V19.7084L50.6873 13.2709L46.0623 23.0209L52.4165 29.1875Z" fill="white"/>
</svg>
